<svg xmlns="http://www.w3.org/2000/svg" viewBox="0 0 120 120" fill="none" stroke="currentColor" stroke-width="1.5" stroke-linecap="round" stroke-linejoin="round">
  <!-- globe -->
  <circle cx="60" cy="60" r="22"/>
  <ellipse cx="60" cy="60" rx="10" ry="22" stroke-width="1" opacity="0.6"/>
  <path d="M38 60h44" stroke-width="1" opacity="0.6"/>
  <path d="M41 49c5 3.5 33 3.5 38 0M41 71c5-3.5 33-3.5 38 0" stroke-width="1" opacity="0.45"/>
  <!-- location pin on the globe -->
  <path d="M60 45c-4.4 0-8 3.6-8 8 0 5.4 8 12 8 12s8-6.6 8-12c0-4.4-3.6-8-8-8z"/>
  <circle cx="60" cy="52.6" r="2.6"/>
  <!-- cardinal view cones -->
  <path d="M60 34V16M55 21l5-5 5 5"/>
  <path d="M86 60h18M99 55l5 5-5 5"/>
  <path d="M60 86v18M55 99l5 5 5-5"/>
  <path d="M34 60H16M21 55l-5 5 5 5"/>
</svg>
