<svg xmlns="http://www.w3.org/2000/svg" viewBox="0 0 120 120" fill="none" stroke="currentColor" stroke-width="1.5" stroke-linecap="round" stroke-linejoin="round">
  <!-- root -->
  <circle cx="60" cy="16" r="6"/>
  <circle cx="60" cy="16" r="2" fill="currentColor" stroke="none"/>
  <!-- trunk + spread -->
  <path d="M60 22v10"/>
  <path d="M30 32h60"/>
  <path d="M30 32v17M90 32v17"/>
  <!-- mid nodes -->
  <circle cx="30" cy="54" r="5"/>
  <circle cx="90" cy="54" r="5"/>
  <!-- branches to leaves -->
  <path d="M30 59v10M18 69v23M18 69h24M42 69v23"/>
  <path d="M90 59v10M78 69h24M78 69v23M102 69v23"/>
  <!-- leaves -->
  <circle cx="18" cy="96" r="4"/>
  <circle cx="42" cy="96" r="4"/>
  <circle cx="78" cy="96" r="4"/>
  <circle cx="102" cy="96" r="4"/>
</svg>
